<svg id="Logo" xmlns="http://www.w3.org/2000/svg" viewBox="0 0 1100 350"><defs><style>.cls-1{fill:#0eafdb;}.cls-2{fill:#bcbcbc;}</style></defs><path class="cls-1" d="M323.24,211.15l-76.82,41a.85.85,0,0,1-.38.09.75.75,0,0,1-.36-.1.66.66,0,0,1-.27-.28.69.69,0,0,1-.1-.37V221.09a.76.76,0,0,1,.1-.39.71.71,0,0,1,.29-.28l32.24-17.2a1.32,1.32,0,0,0,.7-.95,1.39,1.39,0,0,0,0-.61,1.48,1.48,0,0,0-.29-.54L230.8,146a1.34,1.34,0,0,0-.7-.42,1.4,1.4,0,0,0-.81,0,1.38,1.38,0,0,0-.9,1.27V261a1.36,1.36,0,0,1-.2.71,1.34,1.34,0,0,1-.53.5l-30.31,16.12a1.38,1.38,0,0,1-.69.16,1.47,1.47,0,0,1-.67-.19,1.56,1.56,0,0,1-.49-.5,1.47,1.47,0,0,1-.19-.67V63.77a1.4,1.4,0,0,1,.9-1.29,1.38,1.38,0,0,1,1.53.4l125.9,146.17a1.38,1.38,0,0,1-.4,2.1Z"/><path class="cls-1" d="M387.88,165.67c0-29.92,19.42-49.36,47.3-49.36,28.23,0,48,20.19,48,49.54,0,31.6-22.66,47.68-44.25,47.68-12.76,0-23.37-5.61-29.67-15.89v52.91h-21.4Zm73.74-.75c0-16.27-10.62-27.86-26.26-27.86s-26.08,11.59-26.08,27.86,10.43,27.85,26.08,27.85S461.62,181.18,461.62,164.92Z"/><path class="cls-1" d="M584.46,118.86h22.3V127a38,38,0,0,1,9.33-7.47c4.32-2.34,8.65-3,13.65-3a34.84,34.84,0,0,1,17.52,4.26l-9.1,19a21.15,21.15,0,0,0-11.37-3.2c-4.78,0-9.56.64-13.88,4.9-6.15,6.18-6.15,14.71-6.15,20.68V208.6h-22.3Z"/><path class="cls-1" d="M722.35,118.86h22.3V208.6h-22.3v-9.38c-9.78,10.66-21.84,12.15-28.67,12.15-29.58,0-46.42-23-46.42-47.75,0-29.2,21.39-47.11,46.65-47.11,7.06,0,19.34,1.71,28.44,12.79ZM670,164.05c0,15.56,10.47,28.56,26.62,28.56,14.11,0,27.08-9.59,27.08-28.35,0-19.61-13-29-27.08-29C680.49,135.27,670,148.06,670,164.05Z"/><path class="cls-1" d="M760.44,118.86h22.3v8.31a30.37,30.37,0,0,1,23.67-10.66c10,0,19.34,4.48,24.8,13.22,8-10.66,20-13.22,28.44-13.22,11.61,0,21.85,5.12,27.31,14.07,1.82,3,5,9.59,5,22.6V208.6H869.67V159.15c0-10-1.14-14.07-2-16-1.37-3.41-4.78-7.89-12.75-7.89a16.78,16.78,0,0,0-13.19,6.61c-3.87,5.11-4.33,12.79-4.33,20.46V208.6h-22.3V159.15c0-10-1.13-14.07-2-16-1.37-3.41-4.78-7.89-12.75-7.89a16.76,16.76,0,0,0-13.19,6.61c-3.87,5.11-4.33,12.79-4.33,20.46V208.6h-22.3Z"/><path class="cls-1" d="M941.39,164c0-31.09,22.66-46.91,44.24-46.91,12.77,0,23.38,5.52,29.67,15.64v-53h21.4v84.44c0,29.43-19.42,48.56-47.29,48.56C961.17,212.79,941.39,192.93,941.39,164Zm73.91.92c0-16-10.43-27.41-26.07-27.41S963,149,963,165s10.61,27.41,26.26,27.41S1015.3,181,1015.3,165Z"/><circle class="cls-1" cx="918.65" cy="93.11" r="13.32"/><polygon class="cls-1" points="498.09 241.02 520.99 241.02 571.63 118.86 548.55 118.86 528.71 170.59 506.56 118.86 482.8 118.86 516.99 196.56 498.09 241.02"/><rect class="cls-1" x="907.5" y="118.78" width="22.3" height="89.83"/><path class="cls-2" d="M184.73,63.77V277.15a1.36,1.36,0,0,1-.18.68,1.56,1.56,0,0,1-.49.5,1.41,1.41,0,0,1-.67.19,1.34,1.34,0,0,1-.68-.16l-31-16.57L56.8,211.13a1.33,1.33,0,0,1-.45-.4,1.13,1.13,0,0,1-.24-.56,1.35,1.35,0,0,1,0-.6,1.29,1.29,0,0,1,.29-.54l77-89.4a.78.78,0,0,1,.38-.23.75.75,0,0,1,.81.3.71.71,0,0,1,.14.42v42.39a.7.7,0,0,1-.18.48l-32.88,38.16a1.2,1.2,0,0,0-.29.53,1.26,1.26,0,0,0,0,.61,1.36,1.36,0,0,0,.24.55,1.31,1.31,0,0,0,.47.4L149.61,229a1.35,1.35,0,0,0,.68.17,1.37,1.37,0,0,0,.68-.19,1.5,1.5,0,0,0,.49-.51,1.32,1.32,0,0,0,.18-.67V99a1.4,1.4,0,0,1,.33-.89l30.31-35.19a1.35,1.35,0,0,1,.7-.47,1.37,1.37,0,0,1,.85,0,1.36,1.36,0,0,1,.66.52A1.31,1.31,0,0,1,184.73,63.77Z"/></svg>